<?xml version="1.0" encoding="UTF-8" standalone="no"?>
<svg
   xmlns:dc="http://purl.org/dc/elements/1.1/"
   xmlns:cc="http://creativecommons.org/ns#"
   xmlns:rdf="http://www.w3.org/1999/02/22-rdf-syntax-ns#"
   xmlns:svg="http://www.w3.org/2000/svg"
   xmlns="http://www.w3.org/2000/svg"
   xmlns:sodipodi="http://sodipodi.sourceforge.net/DTD/sodipodi-0.dtd"
   xmlns:inkscape="http://www.inkscape.org/namespaces/inkscape"
   version="1.1"
   id="Слой_1"
   x="0px"
   y="0px"
   width="32"
   height="32"
   viewBox="5 -10 32 43.2"
   enable-background="new 0 0 100 100"
   xml:space="preserve"
   inkscape:version="0.48.3.1 r9886"
   sodipodi:docname="choss_hair.svg"><metadata
   id="metadata13"><rdf:RDF><cc:Work
       rdf:about=""><dc:format>image/svg+xml</dc:format><dc:type
         rdf:resource="http://purl.org/dc/dcmitype/StillImage" /><dc:title></dc:title></cc:Work></rdf:RDF></metadata><defs
   id="defs11" /><sodipodi:namedview
   pagecolor="#ffffff"
   bordercolor="#666666"
   borderopacity="1"
   objecttolerance="10"
   gridtolerance="10"
   guidetolerance="10"
   inkscape:pageopacity="0"
   inkscape:pageshadow="2"
   inkscape:window-width="826"
   inkscape:window-height="480"
   id="namedview9"
   showgrid="false"
   inkscape:zoom="2.36"
   inkscape:cx="82.194915"
   inkscape:cy="4.8644068"
   inkscape:window-x="0"
   inkscape:window-y="27"
   inkscape:window-maximized="0"
   inkscape:current-layer="Слой_1" />
<path
   d="M 31.535194,10.027331 C 31.295804,7.9530088 30.373156,6.078909 28.994397,4.6039518 l -2.41158,2.3101584 c 0.769856,0.8716841 1.306669,1.9388134 1.513868,3.1132208 H 22.531779 V 4.696462 c 1.225966,0.198485 2.339945,0.7127222 3.249898,1.4502008 L 28.193258,3.8365044 C 26.653546,2.5161653 24.697169,1.6323202 22.531779,1.4025633 V -8.4313565 H 20.26483 v 9.8339198 c -2.16539,0.2293224 -4.121767,1.1131675 -5.661479,2.4339411 l 2.411581,2.3101584 C 17.924885,5.4091842 19.038864,4.894947 20.26483,4.696462 v 5.330869 H 14.699923 C 14.907122,8.8529236 15.443936,7.7857943 16.213792,6.9141102 L 13.802212,4.6039518 C 12.423907,6.078909 11.501259,7.9530088 11.261415,10.027331 H 0.99576267 v 2.17161 H 11.261415 c 0.23939,2.074322 1.162038,3.948422 2.540797,5.42338 l 2.41158,-2.310159 c -0.769856,-0.871685 -1.30667,-1.938814 -1.513869,-3.113221 h 5.564907 v 5.330869 c -1.225966,-0.198485 -2.339945,-0.712722 -3.249898,-1.450201 l -2.411581,2.310158 c 1.539712,1.32034 3.496089,2.204185 5.661479,2.433941 v 9.833921 h 2.266949 v -9.833921 c 2.16539,-0.229321 4.121767,-1.113167 5.661479,-2.433941 l -2.411581,-2.310158 c -0.909953,0.737479 -2.023932,1.251716 -3.249898,1.450201 v -5.330869 h 5.564906 c -0.207199,1.174407 -0.744012,2.241536 -1.513868,3.113221 l 2.41158,2.310159 c 1.378306,-1.474958 2.300954,-3.349058 2.540797,-5.42338 h 10.265652 v -2.17161 H 31.535194 z"
   id="path3"
   inkscape:connector-curvature="0" />
</svg>