<svg xmlns="http://www.w3.org/2000/svg" xmlns:xlink="http://www.w3.org/1999/xlink" xmlns:sketch="http://www.bohemiancoding.com/sketch/ns" width="100px" height="100px" viewBox="0 0 100 100" version="1.1">
    <!-- Generator: Sketch 3.0.2 (7799) - http://www.bohemiancoding.com/sketch -->
    <title>chart_pie_9</title>
    <description>Created with Sketch.</description>
    <defs/>
    <g id="Statistics" stroke="none" stroke-width="1" fill="none" fill-rule="evenodd" sketch:type="MSPage">
        <path d="M95.9135224,45.0947266 C94.4116143,19.9378422 73.5341734,0 48,0 C21.490332,0 0,21.490332 0,48 C0,74.509668 21.490332,96 48,96 C53.8871345,96 59.5267288,94.9401547 64.7383904,93.0008569 L64.7383904,93.0008569 L46,47.0483398 L46,0.0947265625 L50,0.0947265625 L50,45.0947266 L95.9135224,45.0947266 L95.9135224,45.0947266 Z M95.9877624,49.0947266 C95.569572,67.7820529 84.4715292,83.8341165 68.5567814,91.3877699 L50.8815558,49.0947266 L95.9877624,49.0947266 L95.9877624,49.0947266 Z M54,4.71875 L54,41 L91.4614258,41 C91.4614258,41 88.9506836,25.6166992 78.1538086,15.9951172 C67.3569336,6.37353516 54,4.71875 54,4.71875 Z" id="chart_pie_9" fill="#000000" sketch:type="MSShapeGroup"/>
    </g>
</svg>