<?xml version="1.0" standalone="no"?>
<!DOCTYPE svg PUBLIC "-//W3C//DTD SVG 20010904//EN"
 "http://www.w3.org/TR/2001/REC-SVG-20010904/DTD/svg10.dtd">
<svg version="1.0" xmlns="http://www.w3.org/2000/svg"
 width="64.000000pt" height="64.000000pt" viewBox="0 0 64.000000 64.000000"
 preserveAspectRatio="xMidYMid meet">
<metadata>
Created by potrace 1.11, written by Peter Selinger 2001-2013
</metadata>
<g transform="translate(0.000000,64.000000) scale(0.100000,-0.100000)"
fill="#000000" stroke="none">
<path d="M200 567 c-75 -39 -108 -131 -78 -213 12 -33 11 -34 -52 -92 -46 -42
-62 -63 -57 -75 11 -29 37 -19 102 37 l62 55 44 -16 c115 -42 225 44 217 168
-5 68 -35 114 -92 140 -55 25 -94 24 -146 -4z m141 -32 c39 -21 69 -71 69
-115 0 -136 -195 -180 -253 -57 -21 44 -21 70 0 114 31 66 116 93 184 58z"/>
<path d="M470 420 c0 -5 7 -10 15 -10 9 0 12 -6 8 -17 -5 -13 -2 -15 15 -11
12 4 22 2 22 -3 0 -5 -8 -9 -19 -9 -24 0 -73 -39 -65 -51 3 -6 -2 -19 -11 -29
-23 -26 -16 -64 13 -68 25 -4 42 -36 42 -78 0 -35 28 -43 51 -13 10 13 19 31
19 40 0 9 7 22 15 29 8 6 13 17 12 22 -1 6 4 13 11 15 6 3 12 -2 12 -10 0 -24
-21 -77 -31 -77 -5 0 -14 -11 -19 -25 -23 -60 -165 -85 -219 -39 -2 2 6 15 18
30 28 36 26 44 -16 77 -48 36 -61 18 -34 -44 11 -24 17 -46 15 -49 -10 -10
-53 50 -65 90 -14 45 -35 56 -24 13 30 -121 151 -190 260 -149 72 28 135 115
135 186 0 37 -24 93 -52 126 -43 48 -108 81 -108 54z"/>
</g>
</svg>
